<svg id="Vrstva_1" data-name="Vrstva 1" xmlns="http://www.w3.org/2000/svg" viewBox="0 0 980 980"><defs><style>.cls-1{fill:#fefefe;}.cls-2{fill:#fdfdfd;}.cls-3{fill:#bbb;}</style></defs><path class="cls-1" d="M1863.59,887.75q-474,0-948,.1c-3.91,0-5-.57-4.94-4.78q.21-263.61.12-527.22c1.25-1.19,2.83-1.3,4.43-1.31,16.79.25,33.5,2,50.26,2.83,13.62.64,27.22,1.55,40.81,2.37,13.43.81,26.88,1.39,40.29,2.56,6.94.6,13.93,1.13,20.9,1.19a14.61,14.61,0,0,1,11,4.73q48.13,48.33,96.42,96.51,126.86,126.84,253.79,253.62c4.49,4.48,6.44,9,6.37,15.34-.3,28.14-.13,56.29-.13,84.94,2-1,3.07-2.48,4.29-3.7q76.35-76.3,152.66-152.64c.94-.94,1.87-1.9,2.83-2.81,4-3.79,4.57-3.78,8.68-.23,28.49,24.55,56.74,49.39,85.17,74,32,27.67,63.76,55.52,95.75,83.15,25.56,22.08,50.84,44.49,76.46,66.5C1862.21,884.14,1864.16,885.26,1863.59,887.75Z" transform="translate(-910.68 92.15)"/><path class="cls-1" d="M1356.7-92.06q264.69,0,529.39-.09c3.74,0,4.59.84,4.59,4.59q-.15,474.17-.1,948.31c-2.7.53-3.81-1.63-5.15-3.2-19.39-22.61-39.17-44.9-58.65-67.44q-28.08-32.49-56.29-64.88-28.68-33-57.43-65.87c-17.26-19.84-34.6-39.62-51.73-59.57-2.15-2.5-2.4-4.56,0-6.9,1.31-1.28,2.57-2.61,3.87-3.9q76.15-76.17,152.31-152.35c1.24-1.24,2.88-2.2,3.46-4.12-1.82-.84-3.67-.41-5.45-.41-27.16,0-54.31-.09-81.47.05a14.4,14.4,0,0,1-11-4.59q-175.93-176.08-352-352c-3.18-3.18-4.38-6.55-4.64-11-.83-14.1-1.37-28.22-2.63-42.3-.56-6.28-.81-12.61-1.15-18.91-1.12-21.25-2.62-42.47-3.85-63.71-.46-7.8-1.48-15.58-1.25-23.41a15.56,15.56,0,0,0-1.1-6.85A1.52,1.52,0,0,1,1356.7-92.06Z" transform="translate(-910.68 92.15)"/><path d="M1356.71-91c2.64.39,1.63,2.59,1.72,4q3.77,60.84,7.37,121.69c.67,11.14,1.45,22.28,2,33.42.12,2.69,1.53,4.23,3.19,5.89q24.4,24.36,48.78,48.75,152,152,303.88,304a12.16,12.16,0,0,0,9.53,4c28.65-.18,57.31-.1,86-.1h5.26l.91,1.46a40.17,40.17,0,0,0-4.64,3.49q-78.35,78.21-156.73,156.4c-3.49,3.47-3.43,5.15-.24,8.81q112,128.4,223.75,257c.95,1.09,1.56,2.58,3.17,3v1c-3.82,6.18-9.62,10.53-14.58,15.65-3.57,3.68-6.77,7.83-11.41,10.35h-1c-8.17-8.52-17.47-15.78-26.34-23.51Q1719.88,762,1602.44,659.8c-2.78-2.43-4-2.33-6.61.25q-78.49,78.78-157.21,157.37c-1.4,1.4-2.7,2.91-4.32,4.67-1.3-2.06-.8-3.89-.8-5.57,0-29.16-.08-58.32,0-87.48a9.5,9.5,0,0,0-3.1-7.4Q1253.67,545,1077,368.14a9.77,9.77,0,0,0-6.85-3.33q-70.58-4.19-141.15-8.62c-4.32-.27-8.65-.35-13-.51-1.36-.95-3.5.62-4.54-1.4.41-2.14,2.09-3.36,3.48-4.75q218.51-218.53,437-437C1353.39-88.9,1354.56-90.64,1356.71-91Z" transform="translate(-910.68 92.15)"/><path class="cls-1" d="M1356.71-91c-.74.87-1.43,1.8-2.24,2.61Q1134.11,131.93,913.72,352.25c-.58.58-1.22,1.11-1.84,1.66a.68.68,0,0,1-1.08-.05q0-220.71-.1-441.42c0-3.75.85-4.59,4.6-4.59q220.7.16,441.4.09C1356.7-91.72,1356.71-91.38,1356.71-91Z" transform="translate(-910.68 92.15)"/><path class="cls-2" d="M1864.59,887.75l26-26c0,7.84-.1,15.67.07,23.5,0,2.15-.41,2.61-2.57,2.57C1880.26,887.65,1872.42,887.75,1864.59,887.75Z" transform="translate(-910.68 92.15)"/><path class="cls-3" d="M910.8,353.86l1.08.05c.74,2.08,3,.55,4.14,1.77l-5.22.17Z" transform="translate(-910.68 92.15)"/><path class="cls-1" d="M1681,477.94a42.53,42.53,0,0,0-4,3.16q-96.52,96.46-192.94,193c-2.89,2.89-4.22,3.38-7.45.15q-175.85-176.19-352-352.06c-3.21-3.2-3.07-4.69,0-7.8Q1221.43,217.91,1318,121.1c2.49-2.49,3.65-2.88,6.39-.14q176.76,177,353.71,353.88C1678.88,475.64,1679.64,476.5,1681,477.94Z" transform="translate(-910.68 92.15)"/></svg>