<?xml version="1.0" encoding="utf-8"?>
<!-- Generator: Adobe Illustrator 24.1.1, SVG Export Plug-In . SVG Version: 6.00 Build 0)  -->
<svg version="1.1" id="Ok01" 
	xmlns="http://www.w3.org/2000/svg" 
	xmlns:xlink="http://www.w3.org/1999/xlink" x="0px" y="0px" viewBox="0 0 512 512" style="enable-background:new 0 0 512 512;" xml:space="preserve">
	<style type="text/css">
	.ok0{fill:#465A61;}
	.ok1{fill:#383838;}
	.ok2{fill:#697C86;}
	.ok3{fill:#596C76;}
	.ok4{fill:#A6A5C1;}
	.ok5{fill:#908FB2;}
	</style>
	<path class="ok0" d="M195.9,355.3c-14.9-10.8-28.5-24.3-39.2-39.2c-2.6-3.6-6.6-5.8-11-6.2c-4.6-0.3-8.7,1.2-11.8,4.4l-33.2,33.2
	l-4.6,37.8l25.9,25.9l42.5,0.1l33.2-33.2c3.1-3.1,4.7-7.4,4.4-11.8C201.7,361.9,199.4,357.9,195.9,355.3z"/>
	<path class="ok1" d="M57.3,512c-3.8,0-7.7-1.5-10.6-4.4L4.4,465.3c-5.8-5.8-5.9-15.3,0-21.2l96.3-96.6l63.8,63.8l-96.6,96.3
	C65,510.5,61.1,512,57.3,512z"/>
	<path class="ok2" d="M302,0C186.2,0,92,94.2,92,210c0,45.3,14.1,87.9,40.2,123.6c12.9,17.7,28.5,33.3,45.9,45.9
	c36,26.4,78.6,40.5,123.9,40.5c115.8,0,210-94.2,210-210S417.8,0,302,0z"/>
	<path class="ok3" d="M512,210c0,115.8-94.2,210-210,210V0C417.8,0,512,94.2,512,210z"/>
	<path class="ok4" d="M302,60c-82.8,0-150,67.2-150,150s67.2,150,150,150s150-67.2,150-150S384.8,60,302,60z"/>
	<path class="ok3" d="M372.5,190.5l-75,75c-2.7,3-6.6,4.5-10.5,4.5s-7.8-1.5-10.5-4.5l-45-45c-6-5.7-6-15.3,0-21c5.7-6,15.3-6,21,0
	l34.5,34.2l15-15l49.5-49.2c5.7-6,15.3-6,21,0C378.5,175.2,378.5,184.8,372.5,190.5z"/>
	<path class="ok5" d="M452,210c0,82.8-67.2,150-150,150V60C384.8,60,452,127.2,452,210z"/>
	<path class="ok0" d="M372.5,190.5L302,261v-42.3l49.5-49.2c5.7-6,15.3-6,21,0C378.5,175.2,378.5,184.8,372.5,190.5z"/>
</svg>
