<?xml version="1.0" encoding="utf-8"?>
<!-- Generator: Adobe Illustrator 24.1.1, SVG Export Plug-In . SVG Version: 6.00 Build 0)  -->
<svg version="1.1" id="piggy01" 
	xmlns="http://www.w3.org/2000/svg" 
	xmlns:xlink="http://www.w3.org/1999/xlink" x="0px" y="0px" viewBox="0 0 512 512" style="enable-background:new 0 0 512 512;" xml:space="preserve">
	<style type="text/css">
	.piggy0{fill:#908FB2;}
	.piggy1{fill:#A6A5C1;}
	.piggy2{fill:#465A61;}
	.piggy3{fill:#FDBF00;}
	.piggy4{fill:#FF9F00;}
	.piggy5{fill:#FFD400;}
	.piggy6{fill:#596C76;}
	.piggy7{fill:#FF7816;}
	</style>
	<path class="piggy0" d="M75.8,331H75c-41.4,0-75-33.6-75-75c0-8.3,6.7-15,15-15s15,6.7,15,15c0,24.8,20.2,45,45,45
	c8.3,0,15.4,6.7,15.4,15S84.1,331,75.8,331z"/>
	<path class="piggy1" d="M467,271h-7.9c-4.8-17.1-12.3-33-22.2-47.4l40.5-48c5.1-6,4.8-14.7-0.9-20.1c-22.5-22.5-56.7-28.2-85.2-14.1
	l-11.1,5.7c-8.4-4.2-16.8-8.1-25.5-11.1c-1.5-0.6-3.3-1.2-5.1-1.2H192.4c-1.8,0-3.6,0.6-5.1,1.2C110.5,164.5,61,229.3,61,301
	c0,53.7,27.3,104.5,75,138.7V467c0,24.9,20.1,45,45.9,45c21.6,0,39.3-15.3,43.2-35.7c13.5,3.9,29.7,5.7,45.9,5.7s32.4-1.8,45.9-5.7
	c1.5,8.7,5.7,16.5,12,22.8c8.1,8.1,19.5,12.9,32.1,12.9c24.9,0,45-20.1,45-45v-22.8c17.4-14.4,31.8-33.1,42-53.2h19
	c24.9,0,45-20.1,45-45v-30C512,291.1,491.9,271,467,271z"/>
	<path class="piggy0" d="M512,316v30c0,24.9-20.1,45-45,45c0,0-11.2,0-19,0c-10.2,20.1-24.6,38.8-42,53.2V467c0,24.9-20.1,45-45,45
	c-12.6,0-24-4.8-32.1-12.9c-6.3-6.3-10.5-14.1-12-22.8c-13.5,3.9-29.7,5.7-45.9,5.7V134.8h78.6c1.8,0,3.6,0.6,5.1,1.2
	c8.7,3,17.1,6.9,25.5,11.1l11.1-5.7c28.5-14.1,62.7-8.4,85.2,14.1c5.7,5.4,6,14.1,0.9,20.1l-40.5,48c9.9,14.4,17.4,30.3,22.2,47.4
	h7.9C491.9,271,512,291.1,512,316z"/>
	<path class="piggy2" d="M361.1,301.3c-8.3,0-15.1-6.9-15.1-15.1c0-8.3,6.9-15.1,15.1-15.1c8.3,0,15.1,6.9,15.1,15.1
	C376.3,294.4,369.4,301.3,361.1,301.3z"/>
	<path class="piggy3" d="M376,105c0,36.9-19.2,69.3-48.3,88.2H214.3C185.2,174.3,166,141.9,166,105C166,47.1,213.1,0,271,0
	S376,47.1,376,105z"/>
	<path class="piggy4" d="M376,105c0,36.9-19.2,69.3-48.3,88.2H271V0C328.9,0,376,47.1,376,105z"/>
	<path class="piggy5" d="M346,105c0,41.4-33.6,75-75,75s-75-33.6-75-75s33.6-75,75-75S346,63.6,346,105z"/>
	<path class="piggy4" d="M271,60c-24.9,0-45,20.1-45,45c0,24.9,20.1,45,45,45s45-20.1,45-45C316,80.1,295.9,60,271,60z"/>
	<path class="piggy6" d="M361,196c0,8.4-6.6,15-15,15H196c-8.4,0-15-6.6-15-15c0-8.4,6.6-15,15-15h150C354.4,181,361,187.6,361,196z"/>
	<path class="piggy3" d="M346,105c0,41.4-33.6,75-75,75V30C312.4,30,346,63.6,346,105z"/>
	<path class="piggy7" d="M316,105c0,24.9-20.1,45-45,45V60C295.9,60,316,80.1,316,105z"/>
	<path class="piggy2" d="M361,196c0,8.4-6.6,15-15,15h-75v-30h75C354.4,181,361,187.6,361,196z"/>
</svg>
