<?xml version="1.0" encoding="utf-8"?>
<!-- Generator: Adobe Illustrator 24.1.1, SVG Export Plug-In . SVG Version: 6.00 Build 0)  -->
<svg version="1.1" id="Layer_1" 
	xmlns="http://www.w3.org/2000/svg" 
	xmlns:xlink="http://www.w3.org/1999/xlink" x="0px" y="0px" viewBox="0 0 512 512" style="enable-background:new 0 0 512 512;" xml:space="preserve">
	<style type="text/css">
	.racoonlogo0{fill:#908FB2;}
	.racoonlogo1{fill:#484759;}
	.racoonlogo2{fill:#63696B;}
	.racoonlogo3{fill:#5B5F60;}
	.racoonlogo4{fill:#434849;}
	.racoonlogo5{fill:#303333;}
	.racoonlogo6{fill:#F8FEFF;}
	.racoonlogo7{fill:#6D7375;}
	.racoonlogo8{fill:#333535;}
	.racoonlogo9{fill:#92999B;}
	</style>
	<circle class="racoonlogo0" cx="256" cy="256" r="256"/>
	<path class="racoonlogo1" d="M511.9,249L408.5,145.5L73.3,284.8l226,223.5C420,487.8,512,382.6,512,256C512,253.6,512,251.3,511.9,249z"/>
	<path class="racoonlogo2" d="M103.5,145.5c0,0,44-10.8,64.5,9.7s24.8,49.4,9.7,64.5s-44,10.8-64.5-9.7S103.5,145.5,103.5,145.5z"/>
	<path class="racoonlogo3" d="M334.3,219.7c-15.2-15.2-10.8-44,9.7-64.5c20.5-20.5,64.5-9.7,64.5-9.7s10.8,44-9.7,64.5
	C378.3,230.6,349.4,234.9,334.3,219.7z"/>
	<path class="racoonlogo4" d="M414.8,272.8c0,67.8-71.1,97-158.8,97s-158.8-29.1-158.8-97S168.3,146.5,256,146.5S414.8,205,414.8,272.8z"/>
	<path class="racoonlogo5" d="M414.8,272.8c0-67.8-70.9-126.1-158.5-126.3v223.2C343.8,369.7,414.8,340.6,414.8,272.8z"/>
	<path class="racoonlogo6" d="M243.7,252.9c-7.8-28.8-42.5-46.9-77.5-40.4s-93,72.3-93,72.3s86.4,38.3,121.4,31.9
	C229.6,310.2,251.6,281.7,243.7,252.9z"/>
	<path class="racoonlogo7" d="M236.1,255.8c-5.8-21.4-31.6-34.8-57.5-30c-25.9,4.8-70.8,53.7-70.8,53.7s65.9,28.5,91.9,23.7
	C225.6,298.4,241.9,277.2,236.1,255.8z"/>
	<circle class="racoonlogo8" cx="193.8" cy="267.5" r="11"/>
	<path class="racoonlogo6" d="M268.3,252.9c7.8-28.8,42.5-46.9,77.5-40.4s93,72.3,93,72.3s-86.4,38.3-121.4,31.9
	C282.4,310.2,260.4,281.7,268.3,252.9z"/>
	<path class="racoonlogo7" d="M275.9,255.8c5.8-21.4,31.6-34.8,57.5-30c25.9,4.8,70.8,53.7,70.8,53.7s-65.9,28.5-91.9,23.7
	C286.4,298.4,270.1,277.2,275.9,255.8z"/>
	<circle class="racoonlogo8" cx="318.2" cy="267.5" r="11"/>
	<path class="racoonlogo9" d="M308.3,365.9c0.8-3.3,1.2-6.7,1.2-10.3c0-27.1-23.9-45.3-53.4-45.3s-53.4,18.2-53.4,45.3c0,3.5,0.4,7,1.2,10.3
	c16.4,2.6,34,3.9,52.3,3.9S291.9,368.5,308.3,365.9z"/>
	<path class="racoonlogo7" d="M309.4,355.6c0-27-23.8-45.2-53.2-45.3v59.5c18.2,0,35.7-1.3,52-3.9C309,362.6,309.4,359.1,309.4,355.6z"/>
	<path class="racoonlogo4" d="M246.3,348l-10-12.8c-4.9-6.3,0.6-14.7,9.7-14.7H266c9.1,0,14.7,8.3,9.7,14.7l-10,12.8
	C261.2,353.8,250.8,353.8,246.3,348z"/>
	<path class="racoonlogo5" d="M266,320.5h-9.7v31.9c3.6-0.1,7.2-1.5,9.4-4.4l10-12.8C280.6,328.8,275.1,320.5,266,320.5z"/>
</svg>
