<?xml version="1.0" encoding="utf-8"?>
<!-- Generator: Adobe Illustrator 24.1.1, SVG Export Plug-In . SVG Version: 6.00 Build 0)  -->
<svg version="1.1" id="shot01" 
	xmlns="http://www.w3.org/2000/svg" 
	xmlns:xlink="http://www.w3.org/1999/xlink" x="0px" y="0px" viewBox="0 0 511 511" style="enable-background:new 0 0 511 511;" xml:space="preserve">
	<style type="text/css">
	.shot0{fill:#A6A5C1;}
	.shot1{fill:#908FB2;}
	.shot2{fill:#C6E2E7;}
	.shot3{fill:#A8D3D8;}
	.shot4{fill:#565656;}
	.shot5{fill:#282828;}
	.shot6{fill:#596C76;}
	.shot7{fill:#465A61;}
	</style>
	<path class="shot0" d="M440.8,320.6c-28.1,94.6-116.8,160.5-215.3,160.5C101.6,481.1,0,380.5,0,256.5S101.6,31.9,225.6,31.9
	c98.5,0,187.1,65.9,215.3,160.5c2.4,7.8-2.1,16.2-10.2,18.6v91C438.7,304.4,443.2,312.8,440.8,320.6z"/>
	<path class="shot1" d="M440.8,320.6c-28.1,94.6-116.8,160.5-215.3,160.5C101.6,481.1,0,380.5,0,256.5h430.6V302
	C438.7,304.4,443.2,312.8,440.8,320.6z"/>
	<path class="shot2" d="M225.6,91.8c-90.7,0-165.7,74-165.7,164.7s75,164.7,165.7,164.7s164.7-74,164.7-164.7S316.3,91.8,225.6,91.8z" />
	<path class="shot3" d="M390.2,256.5c0,90.7-74,164.7-164.7,164.7s-165.7-74-165.7-164.7H390.2z"/>
	<path class="shot0" d="M225.6,151.7c-57.8,0-104.8,47-104.8,104.8s47,104.8,104.8,104.8s104.8-47,104.8-104.8S283.3,151.7,225.6,151.7
	z"/>
	<path class="shot1" d="M330.3,256.5c0,57.8-47,104.8-104.8,104.8s-104.8-47-104.8-104.8H330.3z"/>
	<path class="shot2" d="M225.6,211.6c-24.8,0-44.9,20.1-44.9,44.9s20.1,44.9,44.9,44.9c24.9,0,44.9-20.1,44.9-44.9
	S250.4,211.6,225.6,211.6z"/>
	<path class="shot3" d="M180.6,256.5h89.8c0,24.8-20.1,44.9-44.9,44.9C200.7,301.4,180.6,281.3,180.6,256.5z"/>
	<path class="shot4" d="M482.9,255.5l26.6-53.3c2.1-4.5,2.1-10.2-0.6-14.4c-3-4.5-7.8-7.2-12.9-7.2h-90.8c-5.7,0-10.8,3.3-13.5,8.4
	l-29.9,59.9c-0.9,2.1-1.5,4.2-1.5,6.6c0,2.4,0.6,4.5,1.5,6.6l29.9,59.9c2.7,5.1,7.8,8.4,13.5,8.4H496c5.1,0,9.9-2.7,12.9-7.2
	c2.7-4.2,2.7-9.9,0.6-14.4L482.9,255.5z"/>
	<path class="shot5" d="M508.9,324.2c-3,4.5-7.8,7.2-12.9,7.2h-90.8c-5.7,0-10.8-3.3-13.5-8.4l-29.9-59.9c-0.9-2.1-1.5-4.2-1.5-6.6
	h122.6l26.6,53.3C511.6,314.3,511.6,320,508.9,324.2z"/>
	<path class="shot6" d="M511,256.5c0,8.4-6.6,15-15,15H255.5c-8.4,0-15-6.6-15-15c0-8.4,6.6-15,15-15H496
	C504.4,241.5,511,248.1,511,256.5z"/>
	<path class="shot7" d="M511,256.5c0,8.4-6.6,15-15,15H255.5c-8.4,0-15-6.6-15-15H511z"/>
</svg>
